<svg id="Your_Design" data-name="Your Design" xmlns="http://www.w3.org/2000/svg" viewBox="0 0 1767.26 614"><defs><style>.cls-2,.cls-3{stroke-width:0}.cls-2{fill:#00ab8d}.cls-3{fill:#7cc6ba}</style></defs><path class="cls-3" d="M184.04 81.11C136.58 54.09 82.04 38.6 23.93 38.6c-3.6 0-7.08.44-10.65.55.1 61.77 16.47 119.5 44.6 169.38C87.95 155.22 131.52 111 184.03 81.1z"/><path class="cls-2" d="M310.19 208.53c28.13-49.88 44.5-107.62 44.6-169.38-3.57-.12-7.05-.55-10.64-.55-57.21 0-110.93 15.07-157.87 41.33v2.56c51.5 29.87 94.29 73.51 123.91 126.05z"/><path class="cls-3" d="M184.03 338.58c47.46 27.02 102 42.51 160.11 42.51 3.6 0 7.08-.44 10.65-.55-.1-61.77-16.47-119.5-44.6-169.38-30.07 53.31-73.64 97.53-126.15 127.42z"/><path class="cls-2" d="M57.88 211.15c-28.13 49.88-44.5 107.62-44.6 169.38 3.57.12 7.05.55 10.64.55 57.21 0 110.93-15.07 157.87-41.33v-2.56c-51.5-29.87-94.29-73.51-123.91-126.05z"/><path d="M45.4 491.03H13.07v-8.41h74.39v8.41H55.13v83.59H45.4v-83.59zm154.16 83.58l-21.03-29.57c-2.37.26-4.73.39-7.36.39h-24.71v29.18h-9.73v-92h34.43c23.39 0 37.59 11.83 37.59 31.54 0 14.46-7.62 24.58-21.03 28.91l22.47 31.54h-10.65zm-.53-60.45c0-14.72-9.73-23.13-28.12-23.13h-24.44v46.13h24.44c18.4 0 28.12-8.54 28.12-23zm124.19 35.88h-51.26l-11.04 24.58H250.8l42.06-92h9.59l42.06 92h-10.25l-11.04-24.58zm-3.55-7.89l-22.08-49.42-22.08 49.42h44.16zm145.62-59.53l-40.74 92h-9.59l-40.74-92h10.51l35.22 79.91 35.48-79.91h9.86zm112.1 83.58v8.41h-65.05v-92h63.08v8.41h-53.36v32.72h47.58v8.28h-47.58v34.17h55.33zm56.64-83.58h9.72v83.59h51.52v8.41h-61.24v-92zm237.08 67.42h-51.26l-11.04 24.58h-10.12l42.06-92h9.59l42.06 92h-10.25l-11.04-24.58zm-3.55-7.89l-22.08-49.42-22.08 49.42h44.16zm136.68 32.46l-21.03-29.57c-2.37.26-4.73.39-7.36.39h-24.71v29.18h-9.72v-92h34.43c23.39 0 37.59 11.83 37.59 31.54 0 14.46-7.62 24.58-21.03 28.91l22.47 31.54h-10.65zm-.53-60.45c0-14.72-9.72-23.13-28.12-23.13h-24.44v46.13h24.44c18.4 0 28.12-8.54 28.12-23zm83.06-23.13h-32.33v-8.41h74.39v8.41h-32.33v83.59h-9.73v-83.59zm91.33-8.41h9.72v92h-9.72v-92zm64.66 80.82l3.81-7.49c6.57 6.44 18.27 11.17 30.36 11.17 17.22 0 24.71-7.23 24.71-16.3 0-25.23-56.64-9.72-56.64-43.76 0-13.54 10.51-25.23 33.91-25.23 10.38 0 21.16 3.02 28.52 8.15l-3.29 7.75c-7.89-5.13-17.09-7.62-25.23-7.62-16.82 0-24.31 7.49-24.31 16.69 0 25.23 56.64 9.99 56.64 43.5 0 13.54-10.78 25.1-34.3 25.1-13.8 0-27.34-4.86-34.17-11.96zm181.1-13.4h-51.26l-11.04 24.58h-10.12l42.06-92h9.59l42.06 92h-10.25l-11.04-24.58zm-3.55-7.89l-22.08-49.42-22.08 49.42h44.16zm150.74-59.53v92h-8.02l-59.14-74.65v74.65h-9.72v-92h8.02l59.27 74.65v-74.65h9.59zm54.93 80.82l3.81-7.49c6.57 6.44 18.27 11.17 30.36 11.17 17.22 0 24.71-7.23 24.71-16.3 0-25.23-56.64-9.72-56.64-43.76 0-13.54 10.51-25.23 33.91-25.23 10.38 0 21.16 3.02 28.52 8.15l-3.29 7.75c-7.89-5.13-17.09-7.62-25.23-7.62-16.82 0-24.31 7.49-24.31 16.69 0 25.23 56.64 9.99 56.64 43.5 0 13.54-10.78 25.1-34.3 25.1-13.8 0-27.34-4.86-34.17-11.96zM749.33 274.27c0 48.32-37.85 76.51-110.33 76.51H498.87V68.91h132.08c67.65 0 103.89 28.59 103.89 73.29 0 28.99-14.5 50.33-36.24 62.01 30.2 9.66 50.74 33.42 50.74 70.07zM551.22 109.98v77.72h74.09c36.24 0 56.78-12.89 56.78-38.66s-20.54-39.06-56.78-39.06h-74.09zm145.36 159.06c0-28.19-21.34-40.67-60.8-40.67h-84.56v81.34h84.56c39.46 0 60.8-12.48 60.8-40.67zm357.57 81.74l-57.58-82.55c-3.62.4-7.25.4-10.87.4h-63.62v82.15h-52.35V68.91H985.7c74.09 0 120 37.85 120 100.27 0 42.68-21.74 74.09-60 88.99l64.83 92.61h-56.37zM983.28 113.2h-61.21v112.35h61.21c45.91 0 69.66-20.94 69.66-56.37s-23.76-55.97-69.66-55.97zm245.23-44.29h52.35v281.87h-52.35V68.91zm172.74 140.93c0-83.35 64.43-144.96 151.81-144.96s151.81 61.21 151.81 144.96-64.43 144.96-151.81 144.96-151.81-61.61-151.81-144.96zm250.87 0c0-57.58-42.28-99.06-99.06-99.06S1454 152.26 1454 209.84s42.28 99.06 99.06 99.06 99.06-41.48 99.06-99.06zm41.63-114.28V70.12h-9.9v-2.56h22.77v2.56h-9.9v25.44h-2.98zm17.62 0v-28h2.45l12.87 21.84h-1.29l12.75-21.84h2.45v28h-2.86V72h.68l-11.75 20h-1.41l-11.83-20h.76v23.56h-2.86z" stroke-width="0" fill="#fff"/></svg>